<svg width="26" height="26" viewBox="0 0 26 26" fill="none" xmlns="http://www.w3.org/2000/svg">
<path d="M16.428 17.0054L17.572 19.4654C17.572 19.4654 22.7147 20.5574 22.7147 23.1547C22.7147 25 20.4267 25 20.4267 25H14.3334L11.3334 23.3334" stroke="white" stroke-width="1.5" stroke-linecap="round" stroke-linejoin="round"/>
<path d="M9.57194 17.0054L8.42928 19.4654C8.42928 19.4654 3.28528 20.5574 3.28528 23.1547C3.28528 25 5.57328 25 5.57328 25H8.33328L11.3333 23.3334L14.9999 21" stroke="white" stroke-width="1.5" stroke-linecap="round" stroke-linejoin="round"/>
<path d="M1 18.2345C1 18.2345 3.85733 17.6199 5.572 17.0052C7.28533 8.39453 12.4267 9.0092 13 9.0092C13.572 9.0092 18.7147 8.39453 20.428 17.0052C22.1427 17.6185 25 18.2345 25 18.2345" stroke="white" stroke-width="1.5" stroke-linecap="round" stroke-linejoin="round"/>
<path d="M13 6.33333C13.7073 6.33333 14.3856 6.05238 14.8857 5.55229C15.3858 5.05219 15.6667 4.37391 15.6667 3.66667C15.6667 2.95942 15.3858 2.28115 14.8857 1.78105C14.3856 1.28095 13.7073 1 13 1C12.2928 1 11.6145 1.28095 11.1144 1.78105C10.6143 2.28115 10.3334 2.95942 10.3334 3.66667C10.3334 4.37391 10.6143 5.05219 11.1144 5.55229C11.6145 6.05238 12.2928 6.33333 13 6.33333Z" stroke="white" stroke-width="1.5" stroke-linecap="round" stroke-linejoin="round"/>
</svg>
