<svg width="38" height="36" viewBox="0 0 38 36" fill="none" xmlns="http://www.w3.org/2000/svg">
<path d="M37.4307 16.7764L17.9255 0.197191C17.7757 0.0707862 17.5847 0 17.3834 0H12.8142C12.4322 0 12.2566 0.465169 12.5457 0.707865L30.6261 16.0787H0.413029C0.185863 16.0787 0 16.2607 0 16.4831V19.5169C0 19.7393 0.185863 19.9213 0.413029 19.9213H30.6209L12.5406 35.2921C12.2515 35.5399 12.427 36 12.8091 36H17.5331C17.6312 36 17.7293 35.9646 17.8015 35.8989L37.4307 19.2236C37.6095 19.0714 37.7528 18.8834 37.851 18.6723C37.9492 18.4612 38 18.232 38 18C38 17.768 37.9492 17.5388 37.851 17.3277C37.7528 17.1166 37.6095 16.9286 37.4307 16.7764Z" fill="white"/>
</svg>
